<?xml version="1.0" standalone="no"?>
<!DOCTYPE svg PUBLIC "-//W3C//DTD SVG 20010904//EN"
 "http://www.w3.org/TR/2001/REC-SVG-20010904/DTD/svg10.dtd">
<svg version="1.0" xmlns="http://www.w3.org/2000/svg"
 width="1874.000000pt" height="1558.000000pt" viewBox="0 0 1874.000000 1558.000000"
 preserveAspectRatio="xMidYMid meet">

<g transform="translate(0.000000,1558.000000) scale(0.100000,-0.100000)"
fill="#000000" stroke="none">
<path d="M11209 13473 c-94 -76 -162 -138 -494 -453 -360 -342 -429 -405 -570
-523 -66 -56 -217 -187 -335 -292 -118 -105 -255 -224 -305 -265 -152 -125
-432 -368 -840 -730 -214 -190 -454 -401 -533 -468 -238 -204 -567 -460 -578
-450 -3 3 38 97 92 209 203 430 326 655 504 929 170 261 175 272 175 360 0 69
-3 81 -35 134 -19 32 -48 69 -65 82 -16 14 -51 42 -78 64 -55 46 -99 60 -185
60 -75 0 -120 -17 -177 -68 -24 -20 -71 -57 -106 -82 -90 -63 -461 -366 -739
-604 -129 -110 -352 -299 -495 -420 -289 -244 -550 -470 -818 -709 -98 -87
-181 -156 -184 -153 -4 3 47 86 112 183 234 352 483 698 703 975 75 96 177
226 225 290 49 64 134 165 189 225 112 121 137 163 145 237 7 68 -8 96 -100
189 -60 61 -85 78 -144 102 -62 24 -81 27 -135 22 -100 -10 -169 -35 -203 -73
-87 -98 -393 -401 -480 -476 -88 -75 -303 -246 -560 -443 -495 -382 -1646
-1079 -2360 -1429 -231 -114 -571 -247 -725 -284 -334 -82 -527 -66 -659 54
-72 65 -159 304 -181 499 -5 50 -10 165 -10 257 0 165 0 167 41 310 77 268
157 448 299 677 109 175 213 322 347 490 136 170 188 226 473 516 504 513 529
543 516 627 -8 47 -53 117 -99 152 -18 14 -69 42 -112 62 -74 33 -85 36 -148
31 -120 -10 -132 -19 -482 -371 -388 -390 -543 -567 -769 -875 -329 -448 -554
-922 -620 -1301 -46 -263 -22 -588 61 -830 29 -86 153 -337 211 -425 194 -301
476 -464 847 -491 323 -22 790 123 1438 447 252 126 396 206 772 427 210 124
622 375 670 408 23 16 35 18 35 5 0 -14 -150 -238 -382 -573 -499 -717 -799
-1210 -924 -1521 -25 -62 -86 -194 -136 -295 -87 -175 -91 -184 -85 -233 7
-55 12 -65 100 -188 52 -72 67 -85 125 -113 49 -24 80 -32 117 -32 91 2 134
31 320 218 262 263 629 659 948 1023 98 111 256 282 351 380 179 184 627 615
846 814 228 207 837 729 861 737 5 2 -10 -47 -32 -110 -126 -346 -176 -545
-180 -717 -1 -48 4 -69 31 -119 28 -52 46 -71 134 -135 117 -85 137 -94 230
-106 94 -11 144 0 261 58 113 56 558 349 741 488 180 136 517 421 740 624 190
174 608 563 724 674 69 66 197 184 285 261 88 78 200 178 250 222 49 44 91 79
94 77 2 -2 -11 -27 -28 -56 -18 -28 -127 -230 -243 -448 -296 -557 -420 -788
-583 -1086 -78 -143 -225 -415 -325 -605 -209 -395 -404 -753 -430 -790 -10
-14 -31 -53 -48 -87 -65 -127 -261 -460 -1164 -1971 -73 -123 -192 -324 -264
-448 -72 -123 -136 -229 -141 -236 -35 -43 -283 -538 -383 -763 -198 -447
-281 -686 -389 -1125 -70 -281 -85 -404 -85 -715 -1 -222 2 -288 17 -370 43
-229 112 -428 227 -650 40 -77 57 -105 166 -277 27 -43 54 -86 59 -95 51 -90
200 -243 311 -320 48 -34 187 -107 289 -154 76 -34 277 -103 370 -126 33 -8
87 -21 120 -29 114 -28 421 -82 555 -98 74 -9 234 -23 355 -31 234 -16 259
-19 345 -42 175 -45 601 -21 895 51 39 10 90 22 114 27 24 5 60 23 80 39 19
17 43 30 52 30 15 0 99 90 99 106 0 4 -12 21 -27 36 l-27 28 22 30 c33 44 28
83 -14 129 -19 22 -55 50 -80 61 -24 12 -60 42 -80 66 -52 63 -85 71 -221 50
-117 -18 -600 -40 -673 -31 -84 10 -165 28 -192 42 -15 7 -123 22 -250 33
-399 36 -613 66 -792 111 -226 57 -571 195 -727 291 -162 100 -289 253 -289
350 0 20 -11 58 -25 85 -71 137 -73 580 -5 938 59 309 192 727 358 1126 206
496 489 1016 1102 2029 108 179 241 399 295 490 54 91 115 190 136 221 36 54
89 140 210 342 94 156 385 690 612 1122 617 1176 892 1682 1322 2430 227 395
635 1087 766 1300 309 501 322 550 187 705 -59 67 -138 92 -314 98 l-140 4
-75 -59z"/>
<path d="M15730 13191 c-52 -16 -110 -52 -134 -83 -28 -37 -52 -89 -192 -403
-53 -121 -144 -319 -202 -440 -735 -1545 -788 -1678 -1287 -3215 -47 -146
-108 -312 -136 -370 l-50 -105 -207 -206 c-200 -199 -330 -308 -469 -392 -82
-50 -87 -49 -79 15 16 121 163 651 228 823 17 44 86 195 153 335 146 303 167
352 200 465 31 107 33 194 5 267 -23 61 -70 118 -98 118 -20 0 -112 37 -167
67 -33 18 -213 41 -390 50 -178 8 -365 -32 -472 -103 -43 -28 -69 -59 -146
-176 -52 -79 -150 -237 -217 -353 -281 -481 -442 -734 -643 -1013 -108 -150
-127 -173 -127 -153 0 5 68 191 151 413 261 695 263 705 264 1048 l0 235 -28
66 c-45 105 -83 142 -212 204 -163 80 -182 85 -305 85 -136 0 -197 -12 -290
-56 -168 -80 -311 -223 -662 -664 -361 -455 -554 -755 -792 -1230 -249 -499
-331 -755 -296 -925 11 -58 15 -63 118 -163 129 -124 171 -155 259 -189 63
-25 78 -27 200 -25 156 3 217 19 340 88 103 58 262 178 376 283 49 45 95 81
102 81 7 0 25 -18 40 -39 50 -73 141 -150 217 -185 75 -34 179 -70 235 -81 44
-9 190 28 278 70 160 76 362 251 522 452 144 181 462 657 577 866 21 37 42 67
48 67 6 0 7 -8 3 -17 -13 -35 -104 -409 -114 -473 -6 -36 -11 -129 -11 -208 0
-165 12 -213 81 -319 83 -127 184 -195 392 -264 l129 -42 116 6 c218 11 330
44 545 165 85 47 102 53 135 48 84 -14 209 -16 266 -4 l60 13 104 135 c57 74
154 205 215 290 61 85 131 181 155 213 43 57 45 58 62 40 10 -10 48 -74 85
-142 192 -355 359 -598 700 -1018 286 -353 602 -595 910 -698 298 -99 524
-118 747 -61 352 89 760 350 857 548 31 62 32 68 18 88 -9 12 -29 31 -45 41
-22 13 -34 31 -44 64 -12 42 -19 50 -69 76 -81 43 -186 71 -234 64 -67 -10
-326 -142 -555 -283 -177 -108 -360 -172 -495 -172 -54 0 -67 4 -125 42 -213
139 -731 782 -919 1140 -121 231 -196 449 -203 588 -3 50 -1 55 22 61 14 4 61
17 105 29 100 27 248 89 340 142 167 98 375 281 486 428 67 88 152 257 185
366 24 79 27 107 28 239 1 150 1 150 -33 229 -40 91 -96 156 -204 239 -81 62
-120 80 -274 127 -74 23 -103 36 -103 47 0 27 38 147 147 458 184 531 267 847
308 1176 23 189 40 666 28 777 -10 89 -12 96 -49 134 -45 46 -136 103 -179
113 -16 4 -52 15 -80 25 -58 20 -169 32 -205 21z m-70 -3372 c-30 -100 -64
-164 -153 -289 -75 -106 -217 -251 -303 -311 -49 -33 -63 -32 -47 3 15 32 249
370 348 503 154 208 196 233 155 94z m-5045 -789 c-39 -77 -306 -535 -396
-680 -134 -215 -261 -391 -274 -378 -12 11 201 402 327 602 124 196 355 522
364 513 3 -3 -7 -29 -21 -57z"/>
<path d="M890 7550 c0 -5 7 -10 16 -10 8 0 12 5 9 10 -3 6 -10 10 -16 10 -5 0
-9 -4 -9 -10z"/>
<path d="M7116 3053 c-11 -11 -6 -23 9 -23 8 0 15 4 15 9 0 13 -16 22 -24 14z"/>
<path d="M7055 2909 c-10 -15 3 -25 16 -12 7 7 7 13 1 17 -6 3 -14 1 -17 -5z"/>
</g>
</svg>
